<mxfile host="www.draw.io" modified="2019-12-02T07:09:53.294Z" agent="Mozilla/5.0 (Windows NT 10.0; Win64; x64; rv:70.0) Gecko/20100101 Firefox/70.0" etag="LB5TCE6OQ2RZALwqvtgI" version="12.3.3" type="github" pages="1">
  <diagram name="Page-1" id="929967ad-93f9-6ef4-fab6-5d389245f69c">
    <mxGraphModel dx="1005" dy="547" grid="0" gridSize="10" guides="1" tooltips="1" connect="1" arrows="1" fold="1" page="0" pageScale="1.5" pageWidth="1169" pageHeight="826" background="none" math="0" shadow="0">
      <root>
        <mxCell id="0" style=";html=1;"/>
        <mxCell id="1" style=";html=1;" parent="0"/>
        <mxCell id="-p7RqJdtG0hPDVoNJEHc-12" value="Tourist" style="swimlane;fontStyle=1;align=center;verticalAlign=top;childLayout=stackLayout;horizontal=1;startSize=26;horizontalStack=0;resizeParent=1;resizeParentMax=0;resizeLast=0;collapsible=1;marginBottom=0;" vertex="1" parent="1">
          <mxGeometry x="209" y="451" width="127" height="34" as="geometry"/>
        </mxCell>
        <mxCell id="-p7RqJdtG0hPDVoNJEHc-14" value="" style="line;strokeWidth=1;fillColor=none;align=left;verticalAlign=middle;spacingTop=-1;spacingLeft=3;spacingRight=3;rotatable=0;labelPosition=right;points=[];portConstraint=eastwest;" vertex="1" parent="-p7RqJdtG0hPDVoNJEHc-12">
          <mxGeometry y="26" width="127" height="8" as="geometry"/>
        </mxCell>
        <mxCell id="-p7RqJdtG0hPDVoNJEHc-21" value="User" style="swimlane;fontStyle=1;align=center;verticalAlign=top;childLayout=stackLayout;horizontal=1;startSize=26;horizontalStack=0;resizeParent=1;resizeParentMax=0;resizeLast=0;collapsible=1;marginBottom=0;" vertex="1" parent="1">
          <mxGeometry x="209" y="347" width="127" height="34" as="geometry"/>
        </mxCell>
        <mxCell id="-p7RqJdtG0hPDVoNJEHc-22" value="" style="line;strokeWidth=1;fillColor=none;align=left;verticalAlign=middle;spacingTop=-1;spacingLeft=3;spacingRight=3;rotatable=0;labelPosition=right;points=[];portConstraint=eastwest;" vertex="1" parent="-p7RqJdtG0hPDVoNJEHc-21">
          <mxGeometry y="26" width="127" height="8" as="geometry"/>
        </mxCell>
        <mxCell id="-p7RqJdtG0hPDVoNJEHc-23" value="Extends" style="endArrow=block;endSize=16;endFill=0;html=1;entryX=0.5;entryY=1;entryDx=0;entryDy=0;exitX=0.5;exitY=0;exitDx=0;exitDy=0;" edge="1" parent="1" source="-p7RqJdtG0hPDVoNJEHc-12" target="-p7RqJdtG0hPDVoNJEHc-21">
          <mxGeometry width="160" relative="1" as="geometry">
            <mxPoint x="209" y="546" as="sourcePoint"/>
            <mxPoint x="369" y="546" as="targetPoint"/>
          </mxGeometry>
        </mxCell>
        <mxCell id="-p7RqJdtG0hPDVoNJEHc-26" value="Manager&#xa;" style="swimlane;fontStyle=1;align=center;verticalAlign=top;childLayout=stackLayout;horizontal=1;startSize=26;horizontalStack=0;resizeParent=1;resizeParentMax=0;resizeLast=0;collapsible=1;marginBottom=0;" vertex="1" parent="1">
          <mxGeometry x="95" y="506" width="127" height="34" as="geometry"/>
        </mxCell>
        <mxCell id="-p7RqJdtG0hPDVoNJEHc-27" value="" style="line;strokeWidth=1;fillColor=none;align=left;verticalAlign=middle;spacingTop=-1;spacingLeft=3;spacingRight=3;rotatable=0;labelPosition=right;points=[];portConstraint=eastwest;" vertex="1" parent="-p7RqJdtG0hPDVoNJEHc-26">
          <mxGeometry y="26" width="127" height="8" as="geometry"/>
        </mxCell>
        <mxCell id="-p7RqJdtG0hPDVoNJEHc-28" value="Extends" style="endArrow=block;endSize=16;endFill=0;html=1;exitX=0.5;exitY=0;exitDx=0;exitDy=0;entryX=0.25;entryY=1;entryDx=0;entryDy=0;" edge="1" parent="1" source="-p7RqJdtG0hPDVoNJEHc-26" target="-p7RqJdtG0hPDVoNJEHc-21">
          <mxGeometry x="0.3827" y="-1" width="160" relative="1" as="geometry">
            <mxPoint x="378" y="546" as="sourcePoint"/>
            <mxPoint x="317" y="396" as="targetPoint"/>
            <mxPoint y="-1" as="offset"/>
          </mxGeometry>
        </mxCell>
        <mxCell id="-p7RqJdtG0hPDVoNJEHc-29" value="Operator" style="swimlane;fontStyle=1;align=center;verticalAlign=top;childLayout=stackLayout;horizontal=1;startSize=26;horizontalStack=0;resizeParent=1;resizeParentMax=0;resizeLast=0;collapsible=1;marginBottom=0;" vertex="1" parent="1">
          <mxGeometry x="322" y="506" width="127" height="34" as="geometry"/>
        </mxCell>
        <mxCell id="-p7RqJdtG0hPDVoNJEHc-30" value="" style="line;strokeWidth=1;fillColor=none;align=left;verticalAlign=middle;spacingTop=-1;spacingLeft=3;spacingRight=3;rotatable=0;labelPosition=right;points=[];portConstraint=eastwest;" vertex="1" parent="-p7RqJdtG0hPDVoNJEHc-29">
          <mxGeometry y="26" width="127" height="8" as="geometry"/>
        </mxCell>
        <mxCell id="-p7RqJdtG0hPDVoNJEHc-31" value="Extends" style="endArrow=block;endSize=16;endFill=0;html=1;exitX=0.5;exitY=0;exitDx=0;exitDy=0;entryX=0.75;entryY=1;entryDx=0;entryDy=0;" edge="1" parent="1" source="-p7RqJdtG0hPDVoNJEHc-29" target="-p7RqJdtG0hPDVoNJEHc-21">
          <mxGeometry x="0.3585" y="-2" width="160" relative="1" as="geometry">
            <mxPoint x="473" y="444" as="sourcePoint"/>
            <mxPoint x="619.75" y="262" as="targetPoint"/>
            <mxPoint as="offset"/>
          </mxGeometry>
        </mxCell>
        <mxCell id="-p7RqJdtG0hPDVoNJEHc-34" value="Administrator" style="swimlane;fontStyle=1;align=center;verticalAlign=top;childLayout=stackLayout;horizontal=1;startSize=26;horizontalStack=0;resizeParent=1;resizeParentMax=0;resizeLast=0;collapsible=1;marginBottom=0;" vertex="1" parent="1">
          <mxGeometry x="209" y="253" width="127" height="34" as="geometry"/>
        </mxCell>
        <mxCell id="-p7RqJdtG0hPDVoNJEHc-35" value="" style="line;strokeWidth=1;fillColor=none;align=left;verticalAlign=middle;spacingTop=-1;spacingLeft=3;spacingRight=3;rotatable=0;labelPosition=right;points=[];portConstraint=eastwest;" vertex="1" parent="-p7RqJdtG0hPDVoNJEHc-34">
          <mxGeometry y="26" width="127" height="8" as="geometry"/>
        </mxCell>
        <mxCell id="-p7RqJdtG0hPDVoNJEHc-36" value="Extends" style="endArrow=block;endSize=16;endFill=0;html=1;entryX=0.5;entryY=0;entryDx=0;entryDy=0;exitX=0.5;exitY=1;exitDx=0;exitDy=0;" edge="1" parent="1" source="-p7RqJdtG0hPDVoNJEHc-34" target="-p7RqJdtG0hPDVoNJEHc-21">
          <mxGeometry width="160" relative="1" as="geometry">
            <mxPoint x="95" y="601" as="sourcePoint"/>
            <mxPoint x="255" y="601" as="targetPoint"/>
          </mxGeometry>
        </mxCell>
        <mxCell id="-p7RqJdtG0hPDVoNJEHc-68" value="Reservation" style="swimlane;fontStyle=1;align=center;verticalAlign=top;childLayout=stackLayout;horizontal=1;startSize=26;horizontalStack=0;resizeParent=1;resizeParentMax=0;resizeLast=0;collapsible=1;marginBottom=0;" vertex="1" parent="1">
          <mxGeometry x="95" y="705.5" width="127" height="34" as="geometry"/>
        </mxCell>
        <mxCell id="-p7RqJdtG0hPDVoNJEHc-69" value="" style="line;strokeWidth=1;fillColor=none;align=left;verticalAlign=middle;spacingTop=-1;spacingLeft=3;spacingRight=3;rotatable=0;labelPosition=right;points=[];portConstraint=eastwest;" vertex="1" parent="-p7RqJdtG0hPDVoNJEHc-68">
          <mxGeometry y="26" width="127" height="8" as="geometry"/>
        </mxCell>
        <mxCell id="-p7RqJdtG0hPDVoNJEHc-74" value="Tour" style="swimlane;fontStyle=1;align=center;verticalAlign=top;childLayout=stackLayout;horizontal=1;startSize=26;horizontalStack=0;resizeParent=1;resizeParentMax=0;resizeLast=0;collapsible=1;marginBottom=0;labelBackgroundColor=none;strokeWidth=1;" vertex="1" parent="1">
          <mxGeometry x="711" y="646" width="140" height="52" as="geometry"/>
        </mxCell>
        <mxCell id="-p7RqJdtG0hPDVoNJEHc-144" value="&lt;div&gt;+ Destination&lt;/div&gt;" style="text;strokeColor=none;fillColor=none;align=left;verticalAlign=top;spacingLeft=4;spacingRight=4;overflow=hidden;rotatable=0;points=[[0,0.5],[1,0.5]];portConstraint=eastwest;dashed=1;labelBackgroundColor=none;html=1;" vertex="1" parent="-p7RqJdtG0hPDVoNJEHc-74">
          <mxGeometry y="26" width="140" height="26" as="geometry"/>
        </mxCell>
        <mxCell id="-p7RqJdtG0hPDVoNJEHc-76" value="Activity" style="swimlane;fontStyle=1;align=center;verticalAlign=top;childLayout=stackLayout;horizontal=1;startSize=26;horizontalStack=0;resizeParent=1;resizeParentMax=0;resizeLast=0;collapsible=1;marginBottom=0;labelBackgroundColor=none;strokeWidth=1;" vertex="1" parent="1">
          <mxGeometry x="711" y="728.5" width="140" height="104" as="geometry"/>
        </mxCell>
        <mxCell id="-p7RqJdtG0hPDVoNJEHc-151" value="+ Destination" style="text;strokeColor=none;fillColor=none;align=left;verticalAlign=top;spacingLeft=4;spacingRight=4;overflow=hidden;rotatable=0;points=[[0,0.5],[1,0.5]];portConstraint=eastwest;labelBackgroundColor=none;html=1;" vertex="1" parent="-p7RqJdtG0hPDVoNJEHc-76">
          <mxGeometry y="26" width="140" height="26" as="geometry"/>
        </mxCell>
        <mxCell id="-p7RqJdtG0hPDVoNJEHc-152" value="+ Type" style="text;strokeColor=none;fillColor=none;align=left;verticalAlign=top;spacingLeft=4;spacingRight=4;overflow=hidden;rotatable=0;points=[[0,0.5],[1,0.5]];portConstraint=eastwest;labelBackgroundColor=none;html=1;" vertex="1" parent="-p7RqJdtG0hPDVoNJEHc-76">
          <mxGeometry y="52" width="140" height="26" as="geometry"/>
        </mxCell>
        <mxCell id="-p7RqJdtG0hPDVoNJEHc-154" value="+ Description" style="text;strokeColor=none;fillColor=none;align=left;verticalAlign=top;spacingLeft=4;spacingRight=4;overflow=hidden;rotatable=0;points=[[0,0.5],[1,0.5]];portConstraint=eastwest;labelBackgroundColor=none;html=1;" vertex="1" parent="-p7RqJdtG0hPDVoNJEHc-76">
          <mxGeometry y="78" width="140" height="26" as="geometry"/>
        </mxCell>
        <mxCell id="-p7RqJdtG0hPDVoNJEHc-78" value="Car Rental" style="swimlane;fontStyle=1;align=center;verticalAlign=top;childLayout=stackLayout;horizontal=1;startSize=26;horizontalStack=0;resizeParent=1;resizeParentMax=0;resizeLast=0;collapsible=1;marginBottom=0;labelBackgroundColor=none;" vertex="1" parent="1">
          <mxGeometry x="717.5" y="894" width="127" height="34" as="geometry"/>
        </mxCell>
        <mxCell id="-p7RqJdtG0hPDVoNJEHc-79" value="" style="line;strokeWidth=1;fillColor=none;align=left;verticalAlign=middle;spacingTop=-1;spacingLeft=3;spacingRight=3;rotatable=0;labelPosition=right;points=[];portConstraint=eastwest;" vertex="1" parent="-p7RqJdtG0hPDVoNJEHc-78">
          <mxGeometry y="26" width="127" height="8" as="geometry"/>
        </mxCell>
        <mxCell id="-p7RqJdtG0hPDVoNJEHc-80" value="Medical Visitation" style="swimlane;fontStyle=1;align=center;verticalAlign=top;childLayout=stackLayout;horizontal=1;startSize=26;horizontalStack=0;resizeParent=1;resizeParentMax=0;resizeLast=0;collapsible=1;marginBottom=0;labelBackgroundColor=none;" vertex="1" parent="1">
          <mxGeometry x="714.5" y="977" width="127" height="34" as="geometry"/>
        </mxCell>
        <mxCell id="-p7RqJdtG0hPDVoNJEHc-81" value="" style="line;strokeWidth=1;fillColor=none;align=left;verticalAlign=middle;spacingTop=-1;spacingLeft=3;spacingRight=3;rotatable=0;labelPosition=right;points=[];portConstraint=eastwest;" vertex="1" parent="-p7RqJdtG0hPDVoNJEHc-80">
          <mxGeometry y="26" width="127" height="8" as="geometry"/>
        </mxCell>
        <mxCell id="-p7RqJdtG0hPDVoNJEHc-82" value="Extends" style="endArrow=block;endSize=16;endFill=0;html=1;entryX=1.002;entryY=0.12;entryDx=0;entryDy=0;exitX=0;exitY=0.5;exitDx=0;exitDy=0;entryPerimeter=0;" edge="1" parent="1" source="-p7RqJdtG0hPDVoNJEHc-128" target="-p7RqJdtG0hPDVoNJEHc-122">
          <mxGeometry width="160" relative="1" as="geometry">
            <mxPoint x="337.5" y="826.5" as="sourcePoint"/>
            <mxPoint x="449" y="735" as="targetPoint"/>
          </mxGeometry>
        </mxCell>
        <mxCell id="-p7RqJdtG0hPDVoNJEHc-83" value="Extends" style="endArrow=block;endSize=16;endFill=0;html=1;entryX=1.013;entryY=0.144;entryDx=0;entryDy=0;exitX=0;exitY=0.5;exitDx=0;exitDy=0;entryPerimeter=0;" edge="1" parent="1" source="-p7RqJdtG0hPDVoNJEHc-74" target="-p7RqJdtG0hPDVoNJEHc-122">
          <mxGeometry width="160" relative="1" as="geometry">
            <mxPoint x="563" y="611" as="sourcePoint"/>
            <mxPoint x="449" y="764" as="targetPoint"/>
          </mxGeometry>
        </mxCell>
        <mxCell id="-p7RqJdtG0hPDVoNJEHc-84" value="Extends" style="endArrow=block;endSize=16;endFill=0;html=1;exitX=0;exitY=0.5;exitDx=0;exitDy=0;entryX=1.013;entryY=0.194;entryDx=0;entryDy=0;entryPerimeter=0;" edge="1" parent="1" source="-p7RqJdtG0hPDVoNJEHc-76" target="-p7RqJdtG0hPDVoNJEHc-122">
          <mxGeometry width="160" relative="1" as="geometry">
            <mxPoint x="563" y="671" as="sourcePoint"/>
            <mxPoint x="449" y="764" as="targetPoint"/>
          </mxGeometry>
        </mxCell>
        <mxCell id="-p7RqJdtG0hPDVoNJEHc-85" value="Extends" style="endArrow=block;endSize=16;endFill=0;html=1;exitX=0;exitY=0.5;exitDx=0;exitDy=0;entryX=1.013;entryY=0.205;entryDx=0;entryDy=0;entryPerimeter=0;" edge="1" parent="1" source="-p7RqJdtG0hPDVoNJEHc-78" target="-p7RqJdtG0hPDVoNJEHc-122">
          <mxGeometry width="160" relative="1" as="geometry">
            <mxPoint x="563" y="730" as="sourcePoint"/>
            <mxPoint x="447.9839999999999" y="751.8199999999999" as="targetPoint"/>
          </mxGeometry>
        </mxCell>
        <mxCell id="-p7RqJdtG0hPDVoNJEHc-86" value="Extends" style="endArrow=block;endSize=16;endFill=0;html=1;entryX=1.006;entryY=0.159;entryDx=0;entryDy=0;exitX=0;exitY=0.5;exitDx=0;exitDy=0;entryPerimeter=0;" edge="1" parent="1" source="-p7RqJdtG0hPDVoNJEHc-80" target="-p7RqJdtG0hPDVoNJEHc-122">
          <mxGeometry width="160" relative="1" as="geometry">
            <mxPoint x="563" y="792" as="sourcePoint"/>
            <mxPoint x="449" y="793" as="targetPoint"/>
          </mxGeometry>
        </mxCell>
        <mxCell id="-p7RqJdtG0hPDVoNJEHc-87" value="" style="endArrow=diamondThin;endFill=0;endSize=24;html=1;entryX=1;entryY=0.5;entryDx=0;entryDy=0;exitX=0.004;exitY=0.193;exitDx=0;exitDy=0;exitPerimeter=0;" edge="1" parent="1" source="-p7RqJdtG0hPDVoNJEHc-122" target="-p7RqJdtG0hPDVoNJEHc-68">
          <mxGeometry width="160" relative="1" as="geometry">
            <mxPoint x="322" y="764" as="sourcePoint"/>
            <mxPoint x="345.5" y="798.5" as="targetPoint"/>
          </mxGeometry>
        </mxCell>
        <mxCell id="-p7RqJdtG0hPDVoNJEHc-88" value="1..*" style="text;html=1;strokeColor=none;fillColor=none;align=center;verticalAlign=middle;whiteSpace=wrap;rounded=0;labelBackgroundColor=none;" vertex="1" parent="1">
          <mxGeometry x="391" y="541" width="28" height="20" as="geometry"/>
        </mxCell>
        <mxCell id="-p7RqJdtG0hPDVoNJEHc-89" value="1" style="text;html=1;strokeColor=none;fillColor=none;align=center;verticalAlign=middle;whiteSpace=wrap;rounded=0;labelBackgroundColor=none;" vertex="1" parent="1">
          <mxGeometry x="293" y="708.5" width="28" height="20" as="geometry"/>
        </mxCell>
        <mxCell id="-p7RqJdtG0hPDVoNJEHc-92" value="" style="endArrow=none;html=1;edgeStyle=orthogonalEdgeStyle;entryX=0.5;entryY=1;entryDx=0;entryDy=0;exitX=0.25;exitY=0;exitDx=0;exitDy=0;" edge="1" parent="1">
          <mxGeometry relative="1" as="geometry">
            <mxPoint x="127.66666666666674" y="705.3333333333335" as="sourcePoint"/>
            <mxPoint x="272.66666666666674" y="485.33333333333337" as="targetPoint"/>
            <Array as="points">
              <mxPoint x="127.5" y="611"/>
              <mxPoint x="272.5" y="611"/>
            </Array>
          </mxGeometry>
        </mxCell>
        <mxCell id="-p7RqJdtG0hPDVoNJEHc-93" value="0..*" style="resizable=0;html=1;align=left;verticalAlign=bottom;labelBackgroundColor=#ffffff;fontSize=10;" connectable="0" vertex="1" parent="-p7RqJdtG0hPDVoNJEHc-92">
          <mxGeometry x="-1" relative="1" as="geometry">
            <mxPoint x="3" y="-2" as="offset"/>
          </mxGeometry>
        </mxCell>
        <mxCell id="-p7RqJdtG0hPDVoNJEHc-94" value="1" style="resizable=0;html=1;align=right;verticalAlign=bottom;labelBackgroundColor=#ffffff;fontSize=10;" connectable="0" vertex="1" parent="-p7RqJdtG0hPDVoNJEHc-92">
          <mxGeometry x="1" relative="1" as="geometry">
            <mxPoint x="-2" y="18" as="offset"/>
          </mxGeometry>
        </mxCell>
        <mxCell id="-p7RqJdtG0hPDVoNJEHc-95" value="" style="endArrow=none;html=1;edgeStyle=orthogonalEdgeStyle;exitX=0.75;exitY=0;exitDx=0;exitDy=0;entryX=0.25;entryY=1;entryDx=0;entryDy=0;" edge="1" parent="1" source="-p7RqJdtG0hPDVoNJEHc-68" target="-p7RqJdtG0hPDVoNJEHc-29">
          <mxGeometry relative="1" as="geometry">
            <mxPoint x="178.5" y="798.5" as="sourcePoint"/>
            <mxPoint x="350" y="564" as="targetPoint"/>
            <Array as="points">
              <mxPoint x="191" y="657"/>
              <mxPoint x="354" y="657"/>
            </Array>
          </mxGeometry>
        </mxCell>
        <mxCell id="-p7RqJdtG0hPDVoNJEHc-96" value="0..*" style="resizable=0;html=1;align=left;verticalAlign=bottom;labelBackgroundColor=#ffffff;fontSize=10;" connectable="0" vertex="1" parent="-p7RqJdtG0hPDVoNJEHc-95">
          <mxGeometry x="-1" relative="1" as="geometry">
            <mxPoint x="2" y="-2" as="offset"/>
          </mxGeometry>
        </mxCell>
        <mxCell id="-p7RqJdtG0hPDVoNJEHc-97" value="0..1" style="resizable=0;html=1;align=right;verticalAlign=bottom;labelBackgroundColor=#ffffff;fontSize=10;" connectable="0" vertex="1" parent="-p7RqJdtG0hPDVoNJEHc-95">
          <mxGeometry x="1" relative="1" as="geometry">
            <mxPoint y="17" as="offset"/>
          </mxGeometry>
        </mxCell>
        <mxCell id="-p7RqJdtG0hPDVoNJEHc-98" value="" style="endArrow=none;html=1;edgeStyle=orthogonalEdgeStyle;entryX=0.5;entryY=1;entryDx=0;entryDy=0;exitX=0;exitY=0.5;exitDx=0;exitDy=0;" edge="1" parent="1" source="-p7RqJdtG0hPDVoNJEHc-26" target="-p7RqJdtG0hPDVoNJEHc-122">
          <mxGeometry relative="1" as="geometry">
            <mxPoint x="171" y="553" as="sourcePoint"/>
            <mxPoint x="386" y="822" as="targetPoint"/>
            <Array as="points">
              <mxPoint x="64" y="523"/>
              <mxPoint x="64" y="1012"/>
              <mxPoint x="386" y="1012"/>
            </Array>
          </mxGeometry>
        </mxCell>
        <mxCell id="-p7RqJdtG0hPDVoNJEHc-99" value="1..*" style="resizable=0;html=1;align=left;verticalAlign=bottom;labelBackgroundColor=#ffffff;fontSize=10;" connectable="0" vertex="1" parent="-p7RqJdtG0hPDVoNJEHc-98">
          <mxGeometry x="-1" relative="1" as="geometry">
            <mxPoint x="-33.5" as="offset"/>
          </mxGeometry>
        </mxCell>
        <mxCell id="-p7RqJdtG0hPDVoNJEHc-100" value="0..*" style="resizable=0;html=1;align=right;verticalAlign=bottom;labelBackgroundColor=#ffffff;fontSize=10;" connectable="0" vertex="1" parent="-p7RqJdtG0hPDVoNJEHc-98">
          <mxGeometry x="1" relative="1" as="geometry">
            <mxPoint x="-1" y="16.5" as="offset"/>
          </mxGeometry>
        </mxCell>
        <mxCell id="-p7RqJdtG0hPDVoNJEHc-102" value="" style="endArrow=diamondThin;endFill=0;endSize=24;html=1;entryX=0.5;entryY=1;entryDx=0;entryDy=0;exitX=0.5;exitY=0;exitDx=0;exitDy=0;" edge="1" parent="1" source="-p7RqJdtG0hPDVoNJEHc-122" target="-p7RqJdtG0hPDVoNJEHc-29">
          <mxGeometry width="160" relative="1" as="geometry">
            <mxPoint x="385.5" y="706" as="sourcePoint"/>
            <mxPoint x="263" y="815.5" as="targetPoint"/>
          </mxGeometry>
        </mxCell>
        <mxCell id="-p7RqJdtG0hPDVoNJEHc-104" value="0..*" style="text;html=1;strokeColor=none;fillColor=none;align=center;verticalAlign=middle;whiteSpace=wrap;rounded=0;labelBackgroundColor=none;" vertex="1" parent="1">
          <mxGeometry x="246.5" y="705.5" width="28" height="20" as="geometry"/>
        </mxCell>
        <mxCell id="-p7RqJdtG0hPDVoNJEHc-105" value="0..*" style="text;html=1;strokeColor=none;fillColor=none;align=center;verticalAlign=middle;whiteSpace=wrap;rounded=0;labelBackgroundColor=none;" vertex="1" parent="1">
          <mxGeometry x="385.5" y="685.5" width="28" height="20" as="geometry"/>
        </mxCell>
        <mxCell id="-p7RqJdtG0hPDVoNJEHc-122" value="Service" style="swimlane;fontStyle=0;childLayout=stackLayout;horizontal=1;startSize=26;fillColor=none;horizontalStack=0;resizeParent=1;resizeParentMax=0;resizeLast=0;collapsible=1;marginBottom=0;labelBackgroundColor=none;html=1;" vertex="1" parent="1">
          <mxGeometry x="315.5" y="706.5" width="140" height="104" as="geometry"/>
        </mxCell>
        <mxCell id="-p7RqJdtG0hPDVoNJEHc-123" value="+ Destination" style="text;strokeColor=none;fillColor=none;align=left;verticalAlign=top;spacingLeft=4;spacingRight=4;overflow=hidden;rotatable=0;points=[[0,0.5],[1,0.5]];portConstraint=eastwest;" vertex="1" parent="-p7RqJdtG0hPDVoNJEHc-122">
          <mxGeometry y="26" width="140" height="26" as="geometry"/>
        </mxCell>
        <mxCell id="-p7RqJdtG0hPDVoNJEHc-124" value="+ Start Date &amp; Time" style="text;strokeColor=none;fillColor=none;align=left;verticalAlign=top;spacingLeft=4;spacingRight=4;overflow=hidden;rotatable=0;points=[[0,0.5],[1,0.5]];portConstraint=eastwest;" vertex="1" parent="-p7RqJdtG0hPDVoNJEHc-122">
          <mxGeometry y="52" width="140" height="26" as="geometry"/>
        </mxCell>
        <mxCell id="-p7RqJdtG0hPDVoNJEHc-126" value="+ End Date &amp;amp; Time" style="text;strokeColor=none;fillColor=none;align=left;verticalAlign=top;spacingLeft=4;spacingRight=4;overflow=hidden;rotatable=0;points=[[0,0.5],[1,0.5]];portConstraint=eastwest;labelBackgroundColor=none;html=1;" vertex="1" parent="-p7RqJdtG0hPDVoNJEHc-122">
          <mxGeometry y="78" width="140" height="26" as="geometry"/>
        </mxCell>
        <mxCell id="-p7RqJdtG0hPDVoNJEHc-127" value="Hotel" style="swimlane;fontStyle=0;childLayout=stackLayout;horizontal=1;startSize=26;fillColor=none;horizontalStack=0;resizeParent=1;resizeParentMax=0;resizeLast=0;collapsible=1;marginBottom=0;labelBackgroundColor=none;html=1;" vertex="1" parent="1">
          <mxGeometry x="711" y="496" width="140" height="130" as="geometry"/>
        </mxCell>
        <mxCell id="-p7RqJdtG0hPDVoNJEHc-128" value="+ Rating" style="text;strokeColor=none;fillColor=none;align=left;verticalAlign=top;spacingLeft=4;spacingRight=4;overflow=hidden;rotatable=0;points=[[0,0.5],[1,0.5]];portConstraint=eastwest;" vertex="1" parent="-p7RqJdtG0hPDVoNJEHc-127">
          <mxGeometry y="26" width="140" height="26" as="geometry"/>
        </mxCell>
        <mxCell id="-p7RqJdtG0hPDVoNJEHc-129" value="+ Description" style="text;strokeColor=none;fillColor=none;align=left;verticalAlign=top;spacingLeft=4;spacingRight=4;overflow=hidden;rotatable=0;points=[[0,0.5],[1,0.5]];portConstraint=eastwest;" vertex="1" parent="-p7RqJdtG0hPDVoNJEHc-127">
          <mxGeometry y="52" width="140" height="26" as="geometry"/>
        </mxCell>
        <mxCell id="-p7RqJdtG0hPDVoNJEHc-130" value="+ Geo Location" style="text;strokeColor=none;fillColor=none;align=left;verticalAlign=top;spacingLeft=4;spacingRight=4;overflow=hidden;rotatable=0;points=[[0,0.5],[1,0.5]];portConstraint=eastwest;" vertex="1" parent="-p7RqJdtG0hPDVoNJEHc-127">
          <mxGeometry y="78" width="140" height="26" as="geometry"/>
        </mxCell>
        <mxCell id="-p7RqJdtG0hPDVoNJEHc-131" value="+ item: attribute" style="text;strokeColor=none;fillColor=none;align=left;verticalAlign=top;spacingLeft=4;spacingRight=4;overflow=hidden;rotatable=0;points=[[0,0.5],[1,0.5]];portConstraint=eastwest;labelBackgroundColor=none;html=1;" vertex="1" parent="-p7RqJdtG0hPDVoNJEHc-127">
          <mxGeometry y="104" width="140" height="26" as="geometry"/>
        </mxCell>
        <mxCell id="-p7RqJdtG0hPDVoNJEHc-132" value="Classname" style="swimlane;fontStyle=0;childLayout=stackLayout;horizontal=1;startSize=26;fillColor=none;horizontalStack=0;resizeParent=1;resizeParentMax=0;resizeLast=0;collapsible=1;marginBottom=0;labelBackgroundColor=none;html=1;" vertex="1" parent="1">
          <mxGeometry x="311" y="1048" width="140" height="104" as="geometry"/>
        </mxCell>
        <mxCell id="-p7RqJdtG0hPDVoNJEHc-133" value="+ field: type" style="text;strokeColor=none;fillColor=none;align=left;verticalAlign=top;spacingLeft=4;spacingRight=4;overflow=hidden;rotatable=0;points=[[0,0.5],[1,0.5]];portConstraint=eastwest;" vertex="1" parent="-p7RqJdtG0hPDVoNJEHc-132">
          <mxGeometry y="26" width="140" height="26" as="geometry"/>
        </mxCell>
        <mxCell id="-p7RqJdtG0hPDVoNJEHc-134" value="+ field: type" style="text;strokeColor=none;fillColor=none;align=left;verticalAlign=top;spacingLeft=4;spacingRight=4;overflow=hidden;rotatable=0;points=[[0,0.5],[1,0.5]];portConstraint=eastwest;" vertex="1" parent="-p7RqJdtG0hPDVoNJEHc-132">
          <mxGeometry y="52" width="140" height="26" as="geometry"/>
        </mxCell>
        <mxCell id="-p7RqJdtG0hPDVoNJEHc-135" value="+ field: type" style="text;strokeColor=none;fillColor=none;align=left;verticalAlign=top;spacingLeft=4;spacingRight=4;overflow=hidden;rotatable=0;points=[[0,0.5],[1,0.5]];portConstraint=eastwest;" vertex="1" parent="-p7RqJdtG0hPDVoNJEHc-132">
          <mxGeometry y="78" width="140" height="26" as="geometry"/>
        </mxCell>
        <mxCell id="-p7RqJdtG0hPDVoNJEHc-137" value="Hotel Price" style="swimlane;fontStyle=0;childLayout=stackLayout;horizontal=1;startSize=26;fillColor=none;horizontalStack=0;resizeParent=1;resizeParentMax=0;resizeLast=0;collapsible=1;marginBottom=0;labelBackgroundColor=none;html=1;" vertex="1" parent="1">
          <mxGeometry x="928.5" y="523" width="140" height="78" as="geometry"/>
        </mxCell>
        <mxCell id="-p7RqJdtG0hPDVoNJEHc-138" value="+ Beds" style="text;strokeColor=none;fillColor=none;align=left;verticalAlign=top;spacingLeft=4;spacingRight=4;overflow=hidden;rotatable=0;points=[[0,0.5],[1,0.5]];portConstraint=eastwest;" vertex="1" parent="-p7RqJdtG0hPDVoNJEHc-137">
          <mxGeometry y="26" width="140" height="26" as="geometry"/>
        </mxCell>
        <mxCell id="-p7RqJdtG0hPDVoNJEHc-139" value="+ Price" style="text;strokeColor=none;fillColor=none;align=left;verticalAlign=top;spacingLeft=4;spacingRight=4;overflow=hidden;rotatable=0;points=[[0,0.5],[1,0.5]];portConstraint=eastwest;" vertex="1" parent="-p7RqJdtG0hPDVoNJEHc-137">
          <mxGeometry y="52" width="140" height="26" as="geometry"/>
        </mxCell>
        <mxCell id="-p7RqJdtG0hPDVoNJEHc-141" value="" style="endArrow=diamondThin;endFill=0;endSize=24;html=1;entryX=1;entryY=0.5;entryDx=0;entryDy=0;exitX=0;exitY=0.5;exitDx=0;exitDy=0;" edge="1" parent="1" source="-p7RqJdtG0hPDVoNJEHc-138" target="-p7RqJdtG0hPDVoNJEHc-129">
          <mxGeometry width="160" relative="1" as="geometry">
            <mxPoint x="237" y="1175" as="sourcePoint"/>
            <mxPoint x="397" y="1175" as="targetPoint"/>
          </mxGeometry>
        </mxCell>
        <mxCell id="-p7RqJdtG0hPDVoNJEHc-142" value="" style="rounded=1;whiteSpace=wrap;html=1;labelBackgroundColor=none;fillColor=none;dashed=1;" vertex="1" parent="1">
          <mxGeometry x="43" y="219" width="434" height="369" as="geometry"/>
        </mxCell>
        <mxCell id="-p7RqJdtG0hPDVoNJEHc-143" value="Mohammad" style="text;html=1;strokeColor=none;fillColor=none;align=center;verticalAlign=middle;whiteSpace=wrap;rounded=0;dashed=1;labelBackgroundColor=none;fontStyle=1" vertex="1" parent="1">
          <mxGeometry x="87.5" y="250" width="40" height="20" as="geometry"/>
        </mxCell>
        <mxCell id="-p7RqJdtG0hPDVoNJEHc-146" value="Tour Options" style="swimlane;fontStyle=0;childLayout=stackLayout;horizontal=1;startSize=26;fillColor=none;horizontalStack=0;resizeParent=1;resizeParentMax=0;resizeLast=0;collapsible=1;marginBottom=0;labelBackgroundColor=none;html=1;labelBorderColor=none;" vertex="1" parent="1">
          <mxGeometry x="928.5" y="633" width="140" height="78" as="geometry"/>
        </mxCell>
        <mxCell id="-p7RqJdtG0hPDVoNJEHc-147" value="+ Name" style="text;strokeColor=none;fillColor=none;align=left;verticalAlign=top;spacingLeft=4;spacingRight=4;overflow=hidden;rotatable=0;points=[[0,0.5],[1,0.5]];portConstraint=eastwest;" vertex="1" parent="-p7RqJdtG0hPDVoNJEHc-146">
          <mxGeometry y="26" width="140" height="26" as="geometry"/>
        </mxCell>
        <mxCell id="-p7RqJdtG0hPDVoNJEHc-148" value="+ Cost" style="text;strokeColor=none;fillColor=none;align=left;verticalAlign=top;spacingLeft=4;spacingRight=4;overflow=hidden;rotatable=0;points=[[0,0.5],[1,0.5]];portConstraint=eastwest;" vertex="1" parent="-p7RqJdtG0hPDVoNJEHc-146">
          <mxGeometry y="52" width="140" height="26" as="geometry"/>
        </mxCell>
        <mxCell id="-p7RqJdtG0hPDVoNJEHc-150" value="" style="endArrow=diamondThin;endFill=0;endSize=24;html=1;entryX=1.005;entryY=0.216;entryDx=0;entryDy=0;exitX=0;exitY=0.5;exitDx=0;exitDy=0;entryPerimeter=0;" edge="1" parent="1" target="-p7RqJdtG0hPDVoNJEHc-144">
          <mxGeometry width="160" relative="1" as="geometry">
            <mxPoint x="928.5" y="677.5" as="sourcePoint"/>
            <mxPoint x="851" y="676.4999999999999" as="targetPoint"/>
          </mxGeometry>
        </mxCell>
      </root>
    </mxGraphModel>
  </diagram>
</mxfile>
